<?xml version="1.0" encoding="UTF-8" standalone="no"?>
<!-- Created with Inkscape (http://www.inkscape.org/) -->

<svg
   width="159.07538mm"
   height="33.195988mm"
   viewBox="0 0 159.07538 33.195988"
   version="1.1"
   id="svg5"
   inkscape:version="1.2.2 (732a01da63, 2022-12-09, custom)"
   sodipodi:docname="chromgenomeplot.svg"
   xmlns:inkscape="http://www.inkscape.org/namespaces/inkscape"
   xmlns:sodipodi="http://sodipodi.sourceforge.net/DTD/sodipodi-0.dtd"
   xmlns="http://www.w3.org/2000/svg"
   xmlns:svg="http://www.w3.org/2000/svg">
  <sodipodi:namedview
     id="namedview7"
     pagecolor="#ffffff"
     bordercolor="#666666"
     borderopacity="1.0"
     inkscape:showpageshadow="2"
     inkscape:pageopacity="0.0"
     inkscape:pagecheckerboard="0"
     inkscape:deskcolor="#d1d1d1"
     inkscape:document-units="mm"
     showgrid="false"
     inkscape:zoom="1.9060932"
     inkscape:cx="300.61489"
     inkscape:cy="62.693682"
     inkscape:window-width="1866"
     inkscape:window-height="1016"
     inkscape:window-x="54"
     inkscape:window-y="27"
     inkscape:window-maximized="1"
     inkscape:current-layer="layer1" />
  <defs
     id="defs2" />
  <g
     inkscape:label="Layer 1"
     inkscape:groupmode="layer"
     id="layer1"
     transform="translate(-25.306314,-80.679161)">
    <text
       xml:space="preserve"
       style="font-size:11.2889px;line-height:1.25;font-family:Arial;-inkscape-font-specification:Arial;text-align:center;text-anchor:middle;stroke-width:0.264583"
       x="106.73617"
       y="89.638229"
       id="text446"><tspan
         sodipodi:role="line"
         id="tspan444"
         style="font-weight:bold;font-size:11.2889px;stroke-width:0.264583"
         x="106.73617"
         y="89.638229"><tspan
   style="font-weight:bold;fill:#aa0000"
   id="tspan498">C</tspan><tspan
   style="font-weight:bold;fill:#806600"
   id="tspan500">h</tspan><tspan
   style="font-weight:bold;fill:#000080"
   id="tspan502">r</tspan><tspan
   style="font-weight:bold;fill:#a02c89"
   id="tspan504">o</tspan>m<tspan
   style="font-weight:bold;fill:#aa0000"
   id="tspan1817">G</tspan><tspan
   style="font-weight:bold;fill:#806600"
   id="tspan1819">e</tspan><tspan
   style="font-weight:bold;fill:#000080"
   id="tspan1991">n</tspan><tspan
   style="font-weight:bold;fill:#800080"
   id="tspan1993">o</tspan>m<tspan
   style="font-weight:bold;fill:#aa0000"
   id="tspan1995">e</tspan><tspan
   style="font-weight:bold;fill:#806600"
   id="tspan1997">P</tspan><tspan
   style="font-weight:bold;fill:#000080"
   id="tspan1999">l</tspan><tspan
   style="font-weight:bold;fill:#800080"
   id="tspan2001">o</tspan>t</tspan></text>
    <path
       style="fill:#d45500;fill-opacity:1;stroke-width:0.198437;-inkscape-stroke:none;stop-color:#000000"
       id="path2239"
       d="m 28.982125,110.43348 c 0.566187,-0.45689 1.110115,-0.94013 1.642721,-1.43547 0.49222,-0.4642 0.970883,-0.94247 1.450694,-1.4194 0.438836,-0.39164 0.789271,-0.85885 1.139293,-1.32722 0.396029,-0.49274 0.763157,-1.00642 1.167133,-1.49306 0.406839,-0.43322 0.750626,-0.9173 1.132687,-1.37168 0.352179,-0.41 0.732128,-0.79479 1.11162,-1.17923 0.0675,-0.068 0.131408,-0.13978 0.202502,-0.20402 0.182977,-0.16535 0.252195,-0.19411 0.457731,-0.33545 0.08613,-0.0592 0.346964,-0.2327 0.2563,-0.18068 -7.037285,4.03744 -3.721648,2.16293 -2.767055,1.62381 8.121999,-4.686555 1.978025,-1.14612 0.600032,-0.33427 -0.09929,0.0585 0.205658,-0.10407 0.308261,-0.15654 0.3219,-0.16464 0.640421,-0.33498 0.958493,-0.50685 0.553958,-0.2884 1.11475,-0.56964 1.702686,-0.78234 0.548029,-0.17788 1.106353,-0.32229 1.664454,-0.46473 0.574371,-0.14874 1.14626,-0.30512 1.714437,-0.47594 0.528346,-0.18386 1.068946,-0.32838 1.606407,-0.482467 0.693248,-0.174088 1.371378,-0.400259 2.059162,-0.593455 0.655257,-0.172005 1.29962,-0.384098 1.960787,-0.53241 0.600787,-0.126521 1.214729,-0.151318 1.82625,-0.171209 0.833704,-0.0122 1.667586,-0.008 2.501381,-0.0098 1.186183,-0.05452 2.352731,0.128759 3.511931,0.354441 0.832617,0.164269 1.678617,0.307409 2.482226,0.586018 0.832196,0.378452 1.689028,0.694542 2.536761,1.034712 0.779129,0.34515 1.537285,0.73225 2.260171,1.18344 0.796791,0.50199 1.547167,1.072 2.307347,1.62649 0.710615,0.47715 1.401109,0.98324 2.109999,1.46283 0.67645,0.41406 1.359612,0.81673 2.027754,1.24421 0.660593,0.39322 1.322062,0.78276 1.964454,1.20575 0.655402,0.4314 1.347303,0.80113 2.016323,1.21074 0.720982,0.44849 1.48503,0.82206 2.270922,1.14117 0.985163,0.37373 2.003367,0.6523 3.02187,0.91844 1.026752,0.23834 2.074717,0.36822 3.117455,0.51447 1.334342,0.19059 2.681454,0.2574 4.027221,0.30224 1.1016,0.0321 2.203682,0.0407 3.305653,0.0494 0.97576,0.002 1.950511,0.007 2.924241,-0.0608 0.942317,-0.0985 1.856635,-0.36921 2.76533,-0.62682 0.908053,-0.28285 1.796577,-0.62325 2.683603,-0.96512 0.785071,-0.29958 1.555779,-0.63726 2.311498,-1.00434 2.02707,-0.93091 3.91819,-2.09503 5.85191,-3.20876 0.66469,-0.43721 1.30816,-0.9063 1.91969,-1.41537 0.57362,-0.42476 1.16017,-0.83062 1.76991,-1.20188 0.11563,-0.0745 0.23051,-0.15019 0.3469,-0.2235 0.12081,-0.0761 0.24235,-0.15105 0.36464,-0.22472 0.12733,-0.0767 0.51279,-0.30099 0.38419,-0.22643 -5.36823,3.11252 -3.41788,1.94125 -2.18582,1.32239 0.91052,-0.37998 1.84336,-0.69418 2.7378,-1.11356 0.76372,-0.40587 1.53139,-0.80131 2.31707,-1.16305 0.63377,-0.26931 1.23169,-0.6102 1.85153,-0.90854 0.78921,-0.34007 1.5781,-0.681594 2.36718,-1.022515 1.09616,-0.436438 2.21639,-0.805254 3.34962,-1.131634 0.99908,-0.306998 2.02246,-0.490098 3.06584,-0.526992 1.13299,0.0013 2.25922,0.132565 3.36934,0.351282 1.15236,0.256255 2.30406,0.515951 3.44173,0.831954 1.14623,0.315939 2.28028,0.670414 3.38505,1.110435 1.19342,0.47443 2.34416,1.03811 3.46211,1.66796 0.95043,0.56649 1.84366,1.22278 2.74765,1.85927 0.70603,0.51833 1.43919,0.99802 2.17689,1.46964 0.76526,0.48176 1.54158,0.94345 2.33413,1.37883 0.78537,0.4183 1.55916,0.85786 2.3407,1.28326 0.85849,0.42407 1.7383,0.79973 2.63722,1.12855 1.08515,0.37876 2.21255,0.60836 3.32018,0.907 1.13369,0.30707 2.2613,0.63562 3.4061,0.89958 0.93594,0.19622 1.89826,0.19249 2.8502,0.20504 0.99077,0.01 1.9804,0.0207 2.96879,-0.0546 1.01616,-0.0937 2.0358,-0.2023 3.0301,-0.43596 0.918,-0.20277 1.7596,-0.6008 2.57784,-1.05002 1.90471,-1.01138 3.76174,-2.10214 5.55401,-3.29897 0.74195,-0.52865 1.48409,-1.05974 2.20357,-1.61895 0.59323,-0.43545 1.17738,-0.8838 1.77803,-1.30903 0.63124,-0.46161 1.24652,-0.9451 1.88129,-1.40181 0.59968,-0.35667 1.16259,-0.76972 1.72458,-1.18197 0.51637,-0.30965 0.96888,-0.705684 1.40979,-1.112079 0.48714,-0.470294 1.03595,-0.869439 1.56253,-1.293418 0.26029,-0.169209 0.50948,-0.353809 0.75654,-0.541465 0,0 -3.65333,1.451139 -3.65333,1.451139 v 0 c -0.24898,0.181179 -0.50158,0.357696 -0.74167,0.550728 -0.53269,0.424455 -1.06776,0.846525 -1.56246,1.315825 -0.45056,0.38878 -0.92624,0.74185 -1.42057,1.07325 -0.56346,0.40211 -1.13365,0.79318 -1.70865,1.17845 -0.62695,0.4689 -1.25316,0.93886 -1.88558,1.40036 -0.59491,0.43816 -1.19304,0.87196 -1.77948,1.32147 -0.71561,0.53999 -1.42961,1.08388 -2.17704,1.57948 -0.10055,0.0659 -0.71939,0.4724 -0.84355,0.551 -0.12365,0.0783 -0.50107,0.30259 -0.37402,0.22995 5.444,-3.11286 3.50957,-2.00654 2.319,-1.34761 -0.81775,0.45023 -1.62233,0.93719 -2.54516,1.14705 -0.96959,0.27868 -1.97775,0.37593 -2.97901,0.48053 -0.98261,0.0905 -1.9641,0.10581 -2.95106,0.087 -0.93355,-0.007 -1.87312,-0.004 -2.79769,-0.14971 -1.15976,-0.21392 -2.28916,-0.53584 -3.42187,-0.85939 -1.09211,-0.30172 -2.20057,-0.54078 -3.27756,-0.89733 -0.88284,-0.31966 -1.7497,-0.67112 -2.5922,-1.08749 -0.78166,-0.4301 -1.56741,-0.85152 -2.3531,-1.2741 -0.78282,-0.43147 -1.54895,-0.88969 -2.30417,-1.36782 -0.73753,-0.47092 -1.48003,-0.93585 -2.19691,-1.43765 -0.91918,-0.63781 -1.81218,-1.31881 -2.77813,-1.885274 -1.13301,-0.631733 -2.28952,-1.213334 -3.49215,-1.702956 -1.10355,-0.473388 -2.24807,-0.840193 -3.40865,-1.147612 -1.13853,-0.333891 -2.2931,-0.603898 -3.45148,-0.858885 -1.12009,-0.248031 -2.25827,-0.397978 -3.40639,-0.425053 -1.07087,-0.02751 -2.12324,0.140176 -3.14799,0.455795 -1.13108,0.322858 -2.25443,0.662924 -3.35633,1.077648 -0.78569,0.324797 -1.55417,0.689925 -2.35264,0.98271 -0.61625,0.309083 -1.22914,0.621832 -1.85163,0.916323 -0.78428,0.379892 -1.58537,0.726091 -2.33738,1.170694 -0.87625,0.4545 -1.79407,0.80617 -2.73301,1.10951 -1.9342,0.94001 -3.78084,2.05082 -5.59783,3.19918 -0.60524,0.38919 -1.19983,0.7967 -1.75987,1.24931 -0.61534,0.48611 -1.25195,0.94853 -1.92484,1.35221 5.9196,-3.40176 2.28597,-1.25015 0.82515,-0.6208 -0.7414,0.38483 -1.51175,0.71351 -2.28342,1.03172 -0.886756,0.33674 -1.765289,0.69653 -2.668336,0.98896 -0.890587,0.28512 -1.801992,0.52423 -2.720885,0.69596 -0.965089,0.092 -1.92863,0.0964 -2.897836,0.0812 -1.114181,0.009 -2.228535,0.0136 -3.342608,-0.008 -1.328787,-0.0351 -2.660626,-0.0829 -3.976939,-0.28212 -1.029604,-0.16248 -2.067536,-0.276 -3.089227,-0.48705 -1.005668,-0.24557 -2.009105,-0.51901 -2.978375,-0.88419 -0.767426,-0.30718 -1.521026,-0.65489 -2.22387,-1.09264 -0.662877,-0.41311 -1.35018,-0.78138 -2.008942,-1.19992 -0.640463,-0.43002 -1.295027,-0.83585 -1.970897,-1.2081 -0.663787,-0.4316 -1.339964,-0.84364 -2.022636,-1.24466 -0.720585,-0.45454 -1.396564,-0.97574 -2.111179,-1.4398 -0.769882,-0.55419 -1.53329,-1.11759 -2.319634,-1.648607 -0.736423,-0.468368 -1.500709,-0.889336 -2.30115,-1.238671 -0.842748,-0.346946 -1.710891,-0.631963 -2.525268,-1.046477 -0.807196,-0.357725 -1.702258,-0.452782 -2.563456,-0.620491 -1.166942,-0.212862 -2.333566,-0.465846 -3.52739,-0.43145 -0.829807,-0.0043 -1.659575,-0.0068 -2.489393,-0.0066 -0.622575,-0.0024 -1.246897,0.0029 -1.862614,0.108346 -0.671721,0.12015 -1.317683,0.32642 -1.973297,0.51104 -0.692576,0.176044 -1.357998,0.441082 -2.059993,0.579589 -0.537342,0.16723 -1.085334,0.294894 -1.618226,0.476131 -0.552714,0.202914 -1.126297,0.327977 -1.689557,0.498263 -0.563116,0.129641 -1.121212,0.282768 -1.676276,0.442248 -0.619652,0.163672 -1.189114,0.45596 -1.762599,0.736727 -2.242708,1.164212 -8.880829,5.039792 -1.86986,0.991462 -1.679017,0.90511 -3.49961,1.68391 -4.837144,3.0687 -0.379897,0.39073 -0.756246,0.78575 -1.098106,1.21077 -0.370144,0.46077 -0.735401,0.92489 -1.123474,1.37092 -0.393305,0.49817 -0.774321,1.00595 -1.165915,1.50547 -0.353097,0.4561 -0.740998,0.88005 -1.159521,1.27734 -0.474223,0.47365 -0.950386,0.94563 -1.443744,1.39948 -0.544651,0.49483 -1.09825,0.98186 -1.694359,1.41459 0,0 3.675811,-1.46249 3.675811,-1.46249 z" />
    <path
       style="fill:#800080;fill-opacity:1;stroke-width:0.198437;-inkscape-stroke:none;stop-color:#000000"
       id="path2245"
       d="m 30.479314,108.90946 c 1.024152,0.24872 1.891829,0.92024 2.74157,1.5163 0.719297,0.5276 1.47704,0.99806 2.31131,1.31699 0.894586,0.34727 1.815487,0.61829 2.723949,0.92554 0.97078,0.36316 1.961576,0.64572 2.977333,0.84674 0.791064,0.17143 1.589823,0.28952 2.397702,0.33504 0.94017,0.0383 1.881158,0.0212 2.821765,0.0217 1.009377,0.009 1.989037,-0.16644 2.94073,-0.4914 0.924726,-0.36184 1.791173,-0.85358 2.678369,-1.29676 0.876266,-0.41502 1.752703,-0.83001 2.618835,-1.26586 2.396522,-1.19917 4.722622,-2.53826 6.971088,-3.99608 0.809207,-0.55531 1.596909,-1.1402 2.40878,-1.6918 0.810504,-0.56545 1.602163,-1.15738 2.365232,-1.78539 0.648383,-0.55308 1.372354,-1.01175 2.063414,-1.51 0.582234,-0.33971 1.093642,-0.77688 1.673805,-1.11847 -6.069833,3.39713 -2.424584,1.37287 -0.924761,0.76103 0.803026,-0.31911 1.59781,-0.65079 2.360879,-1.05712 0.778796,-0.41671 1.589908,-0.771221 2.401332,-1.119159 1.147993,-0.521004 2.382348,-0.80944 3.589017,-1.159341 1.25398,-0.343074 2.484218,-0.76908 3.739042,-1.108286 0.752948,-0.193252 1.530514,-0.223483 2.303399,-0.242253 0.874971,-0.0047 1.750017,-0.006 2.624997,-0.0021 0.91866,0.04796 1.840389,0.100303 2.748246,0.253497 0.951642,0.175789 1.891958,0.39869 2.832063,0.626843 0.776586,0.185475 1.52392,0.458195 2.256652,0.771578 0.898533,0.376086 1.805697,0.729276 2.697215,1.122481 0.925428,0.44802 1.879394,0.8318 2.81789,1.25048 0.927423,0.38735 1.819583,0.85402 2.714073,1.31102 1.02207,0.54444 2.03038,1.12143 2.99351,1.76507 1.0323,0.69749 2.03132,1.44222 3.05413,2.15315 0.63086,0.43811 1.24099,0.89768 1.9032,1.2879 0.853,0.52347 1.69565,1.06397 2.51772,1.63481 1.11955,0.7665 2.21724,1.56588 3.35377,2.30709 0.9713,0.63036 1.99303,1.17268 3.05337,1.63556 0.69884,0.33577 1.4307,0.49359 2.19812,0.54635 1.1537,0.0281 2.30857,0.0651 3.45801,-0.0517 1.24638,-0.17479 2.46029,-0.50035 3.65287,-0.89494 1.20045,-0.45389 2.40236,-0.90626 3.59226,-1.38763 2.23047,-0.96432 4.4063,-2.13141 6.34545,-3.59919 0.83472,-0.6601 1.60863,-1.39082 2.45606,-2.0351 0.65204,-0.51793 1.30004,-1.03205 1.9722,-1.52248 0.69051,-0.53547 1.38157,-1.0709 2.06092,-1.62065 0.56852,-0.54543 1.2553,-0.93029 1.90268,-1.3717 1.34078,-0.7945 0.69266,-0.40867 -2.47978,1.43173 -0.16392,0.0951 0.32811,-0.18974 0.49254,-0.28394 0.50503,-0.28934 1.01394,-0.57173 1.52033,-0.8587 0.94795,-0.46792 1.88413,-0.95926 2.82891,-1.434325 1.17648,-0.572598 2.42161,-0.987312 3.6638,-1.391058 0.94905,-0.276452 1.90757,-0.522062 2.8722,-0.737896 0.89867,-0.165233 1.80367,-0.291746 2.70307,-0.452559 0.86703,-0.134271 1.73393,-0.275569 2.60511,-0.381149 0.89452,-0.107315 1.79638,-0.102433 2.69473,-0.149449 1.07414,-0.09683 2.15048,-0.15665 3.22823,-0.191874 0.82103,-0.02019 1.64095,-0.03981 2.45997,0.02751 1.13941,0.154345 2.24213,0.482706 3.33583,0.826519 0.86123,0.235643 1.6975,0.530918 2.47772,0.966822 0.69085,0.398293 1.37277,0.811398 2.04229,1.244634 0.56656,0.372748 1.16171,0.697915 1.77527,0.985585 0,0 3.28724,-2.176159 3.28724,-2.176159 v 0 c -0.60688,-0.280313 -1.22311,-0.543346 -1.78472,-0.912405 -0.6697,-0.441908 -1.33571,-0.891138 -2.04294,-1.271892 -0.80026,-0.467119 -1.65632,-0.804873 -2.56071,-1.014627 -1.10907,-0.334063 -2.21323,-0.681154 -3.34979,-0.913723 -0.8348,-0.08849 -1.66589,-0.104867 -2.50528,-0.05502 -1.07963,0.03281 -2.15861,0.08779 -3.23493,0.180147 -0.89587,0.07205 -1.79731,0.02788 -2.69247,0.123637 -0.87744,0.098 -1.74629,0.247692 -2.6213,0.360862 -0.90014,0.17103 -1.80446,0.319133 -2.71179,0.446458 -0.98513,0.196401 -1.95208,0.474446 -2.92385,0.726872 -1.2502,0.399811 -2.50069,0.817067 -3.7011,1.34993 -0.95405,0.454406 -1.86929,0.982141 -2.83698,1.407859 -2.05285,1.196691 -4.17872,2.272801 -6.17299,3.568681 -0.65756,0.4358 -1.31384,0.86874 -1.89671,1.40458 -0.68033,0.54026 -1.35724,1.08574 -2.05786,1.59958 -0.6741,0.4881 -1.30444,1.03047 -1.96603,1.53525 -0.81529,0.65876 -1.58023,1.37761 -2.41962,2.00657 -1.42317,1.00415 -0.61756,0.40953 2.23982,-1.19643 0.16897,-0.095 -0.32975,0.20433 -0.50076,0.29556 -0.3113,0.16608 -0.6326,0.31284 -0.95241,0.46187 -0.16965,0.0791 -0.34278,0.15041 -0.51418,0.22562 -1.19016,0.49856 -2.40136,0.94384 -3.59891,1.42383 -1.16878,0.40713 -2.36119,0.73567 -3.58296,0.94223 -1.12456,0.15703 -2.25518,0.13537 -3.38819,0.0879 -0.73331,-0.0398 -1.45086,-0.12994 -2.13057,-0.43157 -1.05872,-0.43929 -2.0981,-0.92268 -3.0612,-1.55063 -1.13412,-0.73099 -2.22141,-1.53218 -3.32795,-2.30394 -0.81098,-0.59057 -1.64067,-1.15349 -2.49225,-1.68407 -0.64778,-0.40755 -1.28036,-0.8329 -1.91436,-1.26154 -1.05246,-0.67313 -2.05301,-1.42335 -3.0835,-2.12912 -0.95802,-0.66969 -1.96221,-1.27293 -2.99307,-1.82349 -0.89704,-0.46065 -1.78476,-0.950076 -2.7182,-1.332299 -0.93837,-0.423452 -1.90116,-0.789903 -2.82422,-1.247216 -0.885036,-0.399595 -1.78123,-0.771382 -2.681869,-1.134206 -0.745212,-0.340577 -1.500235,-0.650549 -2.303232,-0.829272 -0.948928,-0.207812 -1.884905,-0.469509 -2.842371,-0.638022 -0.918723,-0.194172 -1.85365,-0.23432 -2.787806,-0.313804 -0.873395,-0.0011 -1.746761,-0.01413 -2.620172,-0.0095 -0.790834,0.0024 -1.58587,0.0077 -2.363657,0.17141 -1.292763,0.316069 -2.529965,0.827892 -3.820322,1.156478 -1.183497,0.33987 -2.400509,0.588817 -3.541313,1.057645 -0.808291,0.361241 -1.628672,0.696243 -2.421411,1.092073 -0.757917,0.42272 -1.534808,0.796301 -2.348209,1.102043 -0.306451,0.125894 -0.619045,0.236611 -0.924435,0.365059 -1.709635,0.719051 -3.148023,2.034831 -4.864854,2.699341 -0.556273,0.36857 -1.088009,0.77361 -1.649553,1.13489 -0.693187,0.49105 -1.397677,0.97031 -2.040863,1.52696 -0.767067,0.61511 -1.559367,1.19796 -2.37103,1.75297 -0.799949,0.5495 -1.573371,1.13663 -2.383422,1.67148 -1.097108,0.70868 -3.47481,2.08608 1.544217,-0.81775 0.223803,-0.12949 -0.449249,0.25627 -0.677616,0.37753 -0.21566,0.11451 -0.436134,0.2197 -0.654172,0.32961 -0.188275,0.0949 -0.37651,0.18991 -0.564764,0.28486 -0.864462,0.4361 -1.735984,0.85791 -2.614414,1.26497 -0.883735,0.43726 -1.752063,0.90499 -2.644272,1.32294 -0.922065,0.36771 -1.867908,0.59304 -2.866686,0.60748 -0.9276,0.002 -1.855455,-0.004 -2.782798,-0.0258 -0.801293,-0.034 -1.599827,-0.10757 -2.386322,-0.27206 -1.004461,-0.20463 -2.001808,-0.42013 -2.961235,-0.794 -0.895239,-0.31808 -1.799857,-0.60948 -2.691228,-0.93809 -0.820878,-0.29251 -1.571998,-0.71357 -2.283849,-1.21719 -0.89059,-0.61399 -1.777873,-1.2493 -2.761369,-1.70819 0,0 -3.244649,2.27308 -3.244649,2.27308 z" />
    <path
       style="fill:none;stroke:#000000;stroke-width:0.264583px;stroke-linecap:butt;stroke-linejoin:miter;stroke-opacity:1"
       d="m 37.403471,101.89095 0.819885,7.51742"
       id="path2247" />
    <path
       style="fill:none;stroke:#000000;stroke-width:0.264583px;stroke-linecap:butt;stroke-linejoin:miter;stroke-opacity:1"
       d="m 43.974456,99.865777 1.164656,11.377053"
       id="path2249" />
    <path
       style="fill:none;stroke:#000000;stroke-width:0.264583px;stroke-linecap:butt;stroke-linejoin:miter;stroke-opacity:1"
       d="m 50.62706,98.842506 1.613257,12.305964"
       id="path2251" />
    <path
       style="fill:none;stroke:#000000;stroke-width:0.248478px;stroke-linecap:butt;stroke-linejoin:miter;stroke-opacity:1"
       d="m 57.462135,99.323086 3.025309,7.628484"
       id="path2253" />
    <path
       style="fill:none;stroke:#000000;stroke-width:0.264583px;stroke-linecap:butt;stroke-linejoin:miter;stroke-opacity:1"
       d="m 61.8231,101.53618 1.936797,2.58587"
       id="path2255" />
    <path
       style="fill:none;stroke:#000000;stroke-width:0.264583px;stroke-linecap:butt;stroke-linejoin:miter;stroke-opacity:1"
       d="m 70.422366,103.13433 3.996389,-3.952006"
       id="path2257" />
    <path
       style="fill:none;stroke:#000000;stroke-width:0.264583px;stroke-linecap:butt;stroke-linejoin:miter;stroke-opacity:1"
       d="m 75.259257,104.88622 3.795662,-7.266592"
       id="path2259" />
    <path
       style="fill:none;stroke:#000000;stroke-width:0.264583px;stroke-linecap:butt;stroke-linejoin:miter;stroke-opacity:1"
       d="M 80.330007,107.90162 84.479539,97.022257"
       id="path2261" />
    <path
       style="fill:none;stroke:#000000;stroke-width:0.264583px;stroke-linecap:butt;stroke-linejoin:miter;stroke-opacity:1"
       d="M 86.638748,108.62466 90.063972,97.314775"
       id="path2263" />
    <path
       style="fill:none;stroke:#000000;stroke-width:0.264583px;stroke-linecap:butt;stroke-linejoin:miter;stroke-opacity:1"
       d="m 94.307884,108.74994 2.279094,-8.826511"
       id="path2265" />
    <path
       style="fill:none;stroke:#000000;stroke-width:0.264583px;stroke-linecap:butt;stroke-linejoin:miter;stroke-opacity:1"
       d="m 99.441406,107.88704 0.01029,-7.72843"
       id="path2267" />
    <path
       style="fill:none;stroke:#000000;stroke-width:0.264583px;stroke-linecap:butt;stroke-linejoin:miter;stroke-opacity:1"
       d="m 103.46579,105.53271 -0.88615,-3.44243"
       id="path2269" />
    <path
       style="fill:none;stroke:#000000;stroke-width:0.297588px;stroke-linecap:butt;stroke-linejoin:miter;stroke-opacity:1"
       d="m 112.3359,104.67988 2.50546,-4.58859"
       id="path2271" />
    <path
       style="fill:none;stroke:#000000;stroke-width:0.264583px;stroke-linecap:butt;stroke-linejoin:miter;stroke-opacity:1"
       d="m 116.2932,107.36869 3.22254,-9.106886"
       id="path2273" />
    <path
       style="fill:none;stroke:#000000;stroke-width:0.264583px;stroke-linecap:butt;stroke-linejoin:miter;stroke-opacity:1"
       d="m 121.05894,110.01722 1.69883,-12.294181"
       id="path2275" />
    <path
       style="fill:none;stroke:#000000;stroke-width:0.264583px;stroke-linecap:butt;stroke-linejoin:miter;stroke-opacity:1"
       d="m 126.278,110.98311 2.69344,-12.678251"
       id="path2277" />
    <path
       style="fill:none;stroke:#000000;stroke-width:0.264583px;stroke-linecap:butt;stroke-linejoin:miter;stroke-opacity:1"
       d="m 132.01998,109.90243 1.23074,-10.167776"
       id="path2279" />
    <path
       style="fill:none;stroke:#000000;stroke-width:0.264583px;stroke-linecap:butt;stroke-linejoin:miter;stroke-opacity:1"
       d="m 137.01506,107.41293 -0.93785,-6.25914"
       id="path2281" />
    <path
       style="fill:none;stroke:#000000;stroke-width:0.264583px;stroke-linecap:butt;stroke-linejoin:miter;stroke-opacity:1"
       d="m 147.13014,104.09684 1.56061,-4.325244"
       id="path2283" />
    <path
       style="fill:none;stroke:#000000;stroke-width:0.264583px;stroke-linecap:butt;stroke-linejoin:miter;stroke-opacity:1"
       d="m 151.16062,105.9131 3.68665,-8.0017"
       id="path2285" />
    <path
       style="fill:none;stroke:#000000;stroke-width:0.267047px;stroke-linecap:butt;stroke-linejoin:miter;stroke-opacity:1"
       d="m 158.01933,108.08315 0.5288,-10.87703"
       id="path2287" />
    <path
       style="fill:none;stroke:#000000;stroke-width:0.264583px;stroke-linecap:butt;stroke-linejoin:miter;stroke-opacity:1"
       d="m 163.03913,108.54529 1.16211,-12.105111"
       id="path2289" />
    <path
       style="fill:none;stroke:#000000;stroke-width:0.264583px;stroke-linecap:butt;stroke-linejoin:miter;stroke-opacity:1"
       d="M 169.15459,106.9231 167.61994,96.7947"
       id="path2291" />
    <path
       style="fill:none;stroke:#000000;stroke-width:0.264583px;stroke-linecap:butt;stroke-linejoin:miter;stroke-opacity:1"
       d="m 174.37847,104.06588 -3.63778,-7.437558"
       id="path2293" />
    <path
       style="fill:none;stroke:#000000;stroke-width:0.264583px;stroke-linecap:butt;stroke-linejoin:miter;stroke-opacity:1"
       d="m 176.97594,101.99533 -1.93011,-3.971678"
       id="path2295" />
  </g>
</svg>
